<?xml version="1.0" standalone="no"?><!DOCTYPE svg PUBLIC "-//W3C//DTD SVG 1.1//EN" "http://www.w3.org/Graphics/SVG/1.1/DTD/svg11.dtd"><svg class="icon" height="512" viewBox="0 0 1024 1024" version="1.1" xmlns="http://www.w3.org/2000/svg"><path d="M853.333 10.04c42.667 0 82.991 16.731 113.443 47.184s47.185 70.776 47.185 113.443v682.666c0 42.667-16.732 82.991-47.185 113.443s-70.776 47.185-113.443 47.185H170.667c-42.667 0-82.991-16.732-113.443-47.185S10.039 896 10.039 853.333V170.667c0-42.667 16.732-82.991 47.185-113.443S128 10.039 170.667 10.039h682.666m0-10.039H170.667C76.8 0 0 76.8 0 170.667v682.666C0 947.2 76.8 1024 170.667 1024h682.666C947.2 1024 1024 947.2 1024 853.333V170.667C1024 76.8 947.2 0 853.333 0z m-575.08 222.536h290.301c53.543 0 96.544 12.214 128.837 36.81s48.523 61.574 48.523 111.268c0 30.118-7.362 55.885-22.087 77.302-14.724 21.417-35.806 38.15-63.247 49.862v1.673c36.81 7.864 64.753 25.265 83.66 52.204 18.908 27.106 28.445 60.904 28.445 101.73 0 23.425-4.183 45.344-12.55 65.59-8.365 20.413-21.416 37.982-39.32 52.706s-40.658 26.437-68.6 35.137-61.073 13.051-99.556 13.051H278.254V222.536zM382.83 472.68h170.666c25.098 0 46.013-7.028 62.746-21.417s25.098-34.803 25.098-61.574c0-30.118-7.53-51.367-22.589-63.582s-36.81-18.405-65.255-18.405H382.83V472.68z m0 261.856h184.889c31.79 0 56.554-8.199 73.955-24.763 17.569-16.398 26.437-39.823 26.437-69.94 0-29.616-8.7-52.204-26.437-68.267s-42.165-23.76-73.955-23.76h-184.89v186.73z" /></svg>