<?xml version="1.0" standalone="no"?><!DOCTYPE svg PUBLIC "-//W3C//DTD SVG 1.1//EN" "http://www.w3.org/Graphics/SVG/1.1/DTD/svg11.dtd"><svg class="icon" height="512" viewBox="0 0 1024 1024" version="1.1" xmlns="http://www.w3.org/2000/svg"><path d="M910 63.9H113.9c-27.5 0-50 22.5-50 50v796.2c0 27.5 22.5 50 50 50h796.2c27.5 0 50-22.5 49.9-49.9V113.9c0-27.5-22.5-50-50-50zM922 897c0 13.8-11.2 25-25 25H127c-13.8 0-25-11.2-25-25V127c0-13.8 11.2-25 25-25h770c13.8 0 25 11.2 25 25v770zM295.6 250.7h254c46.8 0 84.5 10.7 112.7 32.2 28.3 21.5 42.5 53.9 42.5 97.4 0 26.4-6.4 48.9-19.3 67.6s-31.3 33.4-55.3 43.6v1.5c32.2 6.9 56.7 22.1 73.2 45.7 16.5 23.7 24.9 53.3 24.9 89 0 20.5-3.7 39.7-11 57.4-7.3 17.9-18.7 33.2-34.4 46.1s-35.6 23.1-60 30.7-53.4 11.4-87.1 11.4H295.6V250.7z m91.5 218.9h149.3c22 0 40.3-6.1 54.9-18.7 14.6-12.6 22-30.5 22-53.9 0-26.4-6.6-44.9-19.8-55.6s-32.2-16.1-57.1-16.1H387.1v144.3z m0 229.1h161.8c27.8 0 49.5-7.2 64.7-21.7 15.4-14.3 23.1-34.8 23.1-61.2 0-25.9-7.6-45.7-23.1-59.7-15.5-14.1-36.9-20.8-64.7-20.8H387.1v163.4z" /></svg>