<?xml version="1.0" encoding="utf-8"?>
<!-- Generator: Adobe Illustrator 22.0.1, SVG Export Plug-In . SVG Version: 6.00 Build 0)  -->
<svg version="1.1" id="Capa_1" xmlns="http://www.w3.org/2000/svg" xmlns:xlink="http://www.w3.org/1999/xlink" x="0px" y="0px"
	 viewBox="0 0 612 612" style="enable-background:new 0 0 612 612;" xml:space="preserve">
<style type="text/css">
	.st0{fill:#FFFFFF;}
</style>
<g>
	<g>
		<g>
			<g>
				<g>
					<path class="st0" d="M159.8,379.7c-1.5,0.7-5.5,1.2-8.9,1.2h-4.1c-3.4,0-7.4-0.5-8.9-1.2c-1.5-0.7-2.7-7-2.7-10.4v-46.9
						c0-3.4-2.8-6.2-6.2-6.2H78c-3.4,0-6.2,2.8-6.2,6.2v46.9c0,3.4-0.5,7.4-1.2,8.9c-0.7,1.5-7,2.7-10.4,2.7h-4.1
						c-3.4,0-7.4-0.5-8.9-1.2s-2.7-7-2.7-10.4V242.8c0-3.4,0.5-7.4,1.2-8.9c0.7-1.5,7-2.7,10.4-2.7h4.1c3.4,0,7.4,0.5,8.9,1.2
						c1.5,0.7,2.7,7,2.7,10.4v41c0,3.4,2.8,6.2,6.2,6.2h50.9c3.4,0,6.2-2.8,6.2-6.2v-41c0-3.4,0.5-7.4,1.2-8.9s7-2.7,10.4-2.7h4.1
						c3.4,0,7.4,0.5,8.9,1.2s2.7,7,2.7,10.4v126.5C162.5,372.7,161.3,379,159.8,379.7z M146,363.8c0,3.4,1.3,6.2,2.8,6.2
						c1.5,0,2.8-2.8,2.8-6.2V248.2c0-3.4-1.3-6.2-2.8-6.2c-1.5,0-2.8,2.8-2.8,6.2v41c0,3.4-0.5,7.4-1.2,8.9c-0.7,1.5-7,2.7-10.4,2.7
						H72.6c-3.4,0-7.4-0.5-8.9-1.2c-1.5-0.7-2.7-7-2.7-10.4v-41c0-3.4-1.3-6.2-2.8-6.2s-2.8,2.8-2.8,6.2v115.6
						c0,3.4,1.3,6.2,2.8,6.2c1.5,0,2.8-2.8,2.8-6.2v-46.9c0-3.4,0.5-7.4,1.2-8.9c0.7-1.5,7-2.7,10.4-2.7h61.8c3.4,0,7.4,0.5,8.9,1.2
						c1.5,0.7,2.7,7,2.7,10.4V363.8z"/>
				</g>
				<g>
					<path class="st0" d="M241.6,379.7c-1.5,0.7-5.5,1.2-8.9,1.2h-4.1c-3.4,0-7.4-0.5-8.9-1.2s-2.7-7-2.7-10.4V263.5
						c0-3.4-2.8-6.2-6.2-6.2h-28.1c-3.4,0-7.4-0.5-8.9-1.2c-1.5-0.7-2.7-7-2.7-10.4v-2.9c0-3.4,0.5-7.4,1.2-8.9
						c0.7-1.5,7-2.7,10.4-2.7h95.9c3.4,0,7.4,0.5,8.9,1.2c1.5,0.7,2.7,7,2.7,10.4v2.9c0,3.4-0.5,7.4-1.2,8.9
						c-0.7,1.5-7,2.7-10.4,2.7h-28.1c-3.4,0-6.2,2.8-6.2,6.2v105.8C244.3,372.7,243.1,379,241.6,379.7z M227.8,363.8
						c0,3.4,1.3,6.2,2.8,6.2c1.5,0,2.8-2.8,2.8-6.2V258.1c0-3.4,0.5-7.4,1.2-8.9c0.7-1.5,7-2.7,10.4-2.7h28.1c3.4,0,6.2-1,6.2-2.2
						c0-1.2-2.8-2.2-6.2-2.2h-85c-3.4,0-6.2,1-6.2,2.2c0,1.2,2.8,2.2,6.2,2.2h28.1c3.4,0,7.4,0.5,8.9,1.2c1.5,0.7,2.7,7,2.7,10.4
						L227.8,363.8L227.8,363.8L227.8,363.8z"/>
				</g>
				<g>
					<path class="st0" d="M450.3,379.7c-1.5,0.7-5.5,1.2-8.9,1.2h-4.1c-3.4,0-7.4-0.5-8.9-1.2c-1.5-0.7-2.7-7-2.7-10.4v-78.5
						c0-3.4-1.1-3.6-2.4-0.5l-34.9,81.7c-1.3,3.1-3.1,6.4-3.8,7.3c-0.8,0.9-5.8,1.7-8.6,1.7s-5.9-0.3-7.1-0.7s-4-5.2-5.4-8.3
						l-34.9-81.7c-1.3-3.1-2.4-2.9-2.4,0.5v78.5c0,3.4-0.5,7.4-1.2,8.9c-0.7,1.5-7,2.7-10.4,2.7h-4.1c-3.4,0-7.4-0.5-8.9-1.2
						s-2.7-7-2.7-10.4V242.8c0-3.4,0.5-7.4,1.2-8.9c0.7-1.5,7-2.7,10.4-2.7h12.2c3.4,0,7.1,0.3,8.2,0.7c1.1,0.4,4,5.2,5.4,8.3
						l37.4,86.4c1.4,3.1,3.6,3.1,4.9,0l37.7-86.5c1.4-3.1,3.1-6.4,3.9-7.3s6.4-1.6,9.8-1.6h11.6c3.4,0,7.4,0.5,8.9,1.2
						c1.5,0.7,2.7,7,2.7,10.4v126.5C453,372.7,451.8,379,450.3,379.7z M436.5,363.8c0,3.4,1.3,6.2,2.8,6.2s2.8-2.8,2.8-6.2V248.2
						c0-3.4-2.8-6.2-6.2-6.2h-2.6c-3.4,0-7.3,2.6-8.7,5.7L383.6,342c-1.4,3.1-4.4,6.6-6.8,7.6c-2.4,1.1-7.2-4.6-8.5-7.7l-40.8-94.2
						c-1.4-3.1-5.2-5.7-8.6-5.7h-3.1c-3.4,0-6.2,2.8-6.2,6.2v115.6c0,3.4,1.3,6.2,2.8,6.2s2.8-2.8,2.8-6.2v-98.7
						c0-3.4,1.1-8.6,2.4-11.6c0,0,0,0,3,0c2.2,0,2.2,0,2.2,0c1.8,1.8,4.4,5.9,5.7,9L372,364.4c1.3,3.1,3.1,5.7,3.8,5.7
						c0.8,0,2.5-2.6,3.8-5.7l43.5-101.8c1.3-3.1,4.9-6.4,7.9-7.2c3-0.9,5.4,6.5,5.4,9.9L436.5,363.8L436.5,363.8L436.5,363.8z"/>
				</g>
				<g>
					<path class="st0" d="M564.8,379.7c-1.5,0.7-5.5,1.2-8.9,1.2h-67.7c-3.4,0-7.4-0.5-8.9-1.2s-2.7-7-2.7-10.4V242.8
						c0-3.4,0.5-7.4,1.2-8.9s7-2.7,10.4-2.7h4.1c3.4,0,7.4,0.5,8.9,1.2c1.5,0.7,2.7,7,2.7,10.4v105.8c0,3.4,2.8,6.2,6.2,6.2h45.7
						c3.4,0,7.4,0.5,8.9,1.2c1.5,0.7,2.7,7,2.7,10.4v2.9C567.5,372.7,566.3,379,564.8,379.7z M487.5,363.8c0,3.4,2.8,6.2,6.2,6.2
						h56.8c3.4,0,6.2-1,6.2-2.2s-2.8-2.2-6.2-2.2h-45.7c-3.4,0-7.4-0.5-8.9-1.2s-2.7-7-2.7-10.4V248.2c0-3.4-1.3-6.2-2.8-6.2
						s-2.8,2.8-2.8,6.2L487.5,363.8L487.5,363.8z"/>
				</g>
			</g>
		</g>
		<path class="st0" d="M306,612C137.3,612,0,474.8,0,306C0,137.3,137.3,0,306,0s306,137.3,306,306C612,474.8,474.7,612,306,612z
			 M306,21.8C149.3,21.8,21.8,149.3,21.8,306c0,156.7,127.5,284.2,284.2,284.2S590.2,462.7,590.2,306
			C590.2,149.3,462.7,21.8,306,21.8z"/>
	</g>
</g>
</svg>
