<?xml version="1.0" encoding="utf-8"?>
<!-- Generator: Adobe Illustrator 22.0.1, SVG Export Plug-In . SVG Version: 6.00 Build 0)  -->
<svg version="1.1" id="Layer_1" xmlns="http://www.w3.org/2000/svg" xmlns:xlink="http://www.w3.org/1999/xlink" x="0px" y="0px"
	 viewBox="0 0 512 512" style="enable-background:new 0 0 512 512;" xml:space="preserve">
<style type="text/css">
	.st0{fill:#FFFFFF;}
</style>
<circle class="st0" cx="256" cy="256" r="256"/>
<g>
	<path class="st0" d="M99.2,302.2V199.2h45.7c9.2,0,16.2,0.9,21,2.8s8.6,5.1,11.5,9.8s4.3,9.9,4.3,15.5c0,7.3-2.4,13.5-7.1,18.5
		s-12,8.2-21.9,9.6c3.6,1.7,6.4,3.4,8.2,5.1c4,3.7,7.8,8.2,11.3,13.7l17.9,28.1h-17.2l-13.6-21.4c-4-6.2-7.3-10.9-9.8-14.2
		s-4.9-5.6-6.9-6.9c-2-1.3-4.1-2.2-6.2-2.7c-1.5-0.3-4.1-0.5-7.6-0.5h-15.8v45.8L99.2,302.2L99.2,302.2z M112.9,244.7h29.3
		c6.2,0,11.1-0.6,14.6-1.9s6.2-3.4,8-6.2s2.7-5.9,2.7-9.2c0-4.9-1.8-8.9-5.3-12c-3.5-3.1-9.1-4.7-16.8-4.7h-32.6V244.7z"/>
	<path class="st0" d="M250.3,302.2v-11c-5.8,8.4-13.7,12.7-23.7,12.7c-4.4,0-8.5-0.8-12.3-2.5s-6.7-3.8-8.5-6.4
		c-1.9-2.6-3.2-5.7-3.9-9.4c-0.5-2.5-0.8-6.4-0.8-11.8v-46.3h12.7V269c0,6.6,0.3,11.1,0.8,13.4c0.8,3.3,2.5,5.9,5.1,7.8
		c2.6,1.9,5.8,2.8,9.6,2.8s7.4-1,10.7-2.9s5.7-4.6,7.1-8c1.4-3.3,2.1-8.2,2.1-14.6v-40h12.7v74.7H250.3z"/>
	<path class="st0" d="M293.2,302.2h-11.7V199.2h12.7v36.8c5.3-6.7,12.2-10.1,20.5-10.1c4.6,0,8.9,0.9,13,2.8s7.5,4.5,10.1,7.8
		c2.6,3.4,4.7,7.4,6.2,12.1s2.2,9.8,2.2,15.2c0,12.8-3.2,22.7-9.5,29.7s-13.9,10.5-22.8,10.5c-8.8,0-15.7-3.7-20.7-11L293.2,302.2
		L293.2,302.2z M293,264.3c0,9,1.2,15.4,3.7,19.4c4,6.5,9.4,9.8,16.2,9.8c5.5,0,10.3-2.4,14.3-7.2s6-12,6-21.5
		c0-9.8-1.9-16.9-5.8-21.6c-3.9-4.6-8.5-7-14-7c-5.5,0-10.3,2.4-14.3,7.2C295,248.3,293,255.2,293,264.3z"/>
	<path class="st0" d="M361,331l-1.4-11.9c2.8,0.8,5.2,1.1,7.2,1.1c2.8,0,5.1-0.5,6.8-1.4s3.1-2.2,4.2-3.9c0.8-1.3,2.1-4.4,3.9-9.4
		c0.2-0.7,0.6-1.7,1.1-3.1l-28.3-74.8H368l15.5,43.2c2,5.5,3.8,11.2,5.4,17.3c1.5-5.8,3.2-11.5,5.2-17l16-43.5h12.7l-28.4,75.9
		c-3,8.2-5.4,13.8-7.1,16.9c-2.2,4.2-4.8,7.2-7.7,9.2c-2.9,1.9-6.4,2.9-10.4,2.9C366.7,332.5,364,332,361,331z"/>
</g>
</svg>
