<svg height="495pt" viewBox="-79 0 495 495.996" width="495pt" xmlns="http://www.w3.org/2000/svg"><path d="m140.5 183.996094c6.617188 0 12-5.382813 12-12 0-6.617188-5.382812-12-12-12-6.613281 0-12 5.382812-12 12 0 6.617187 5.386719 12 12 12zm0-16c2.210938 0 4 1.800781 4 4 0 2.199218-1.789062 4-4 4-2.207031 0-4-1.800782-4-4 0-2.199219 1.792969-4 4-4zm0 0"/><path d="m196.5 159.996094c-6.613281 0-12 5.382812-12 12 0 6.617187 5.386719 12 12 12 6.617188 0 12-5.382813 12-12 0-6.617188-5.382812-12-12-12zm0 16c-2.207031 0-4-1.800782-4-4 0-2.199219 1.792969-4 4-4 2.210938 0 4 1.800781 4 4 0 2.199218-1.789062 4-4 4zm0 0"/><path d="m320.5 121.46875v-45.472656l11.082031-4.617188c3.054688-1.269531 5.015625-4.304687 4.917969-7.613281-.09375-3.3125-2.222656-6.21875-5.351562-7.320313l-160-56c-1.710938-.59375-3.574219-.59375-5.285157 0l-160 56c-3.128906 1.09375-5.257812 4.007813-5.363281 7.320313-.101562 3.308594 1.859375 6.34375 4.921875 7.613281l91.335937 38.058594c-.054687.863281-.257812 1.679688-.257812 2.558594v32c-17.644531 0-32 14.351562-32 32 0 17.648437 14.355469 32 32 32 0 24.910156 12.722656 46.894531 32 59.824218v22.023438l-66.550781 17.753906c-31.472657 8.398438-53.449219 37.007813-53.449219 69.566406v110.832032c0 4.425781 3.585938 8 8 8h304c4.417969 0 8-3.574219 8-8v-110.832032c0-32.558593-21.972656-61.167968-53.445312-69.566406l-66.554688-17.753906v-22.023438c19.28125-12.9375 32-34.921874 32-59.824218 17.648438 0 32-14.351563 32-32 0-17.648438-14.351562-32-32-32v-32c0-.878906-.199219-1.695313-.253906-2.558594l64.253906-26.777344v38.808594c-9.285156 3.3125-16 12.109375-16 22.527344v32c0 4.425781 3.585938 8 8 8h32c4.417969 0 8-3.574219 8-8v-32c0-10.417969-6.710938-19.214844-16-22.527344zm-96 6.527344h-112v-16c0-13.230469 10.769531-24 24-24h64c13.234375 0 24 10.769531 24 24zm-144 48c0-8.824219 7.179688-16 16-16v32c-8.820312 0-16-7.175782-16-16zm53.601562 128.910156 23.746094 23.746094-18.019531 66.046875-64.285156-74.175781zm34.398438 45.488281 16.050781 58.859375-16.050781 18.527344-16.046875-18.519531zm-144 26.769531c0-6.488281 1.152344-12.761718 3.234375-18.632812l121.457031 121.464844h-124.691406zm288 102.832032h-124.6875l121.457031-121.457032c2.082031 5.871094 3.230469 12.144532 3.230469 18.625zm-11.117188-136.191406-132.882812 132.878906-132.878906-132.878906c5.878906-7.914063 13.832031-14.207032 23.191406-18.152344l103.640625 119.582031c1.519531 1.753906 3.730469 2.761719 6.046875 2.761719 2.320312 0 4.53125-1.007813 6.050781-2.761719l103.640625-119.582031c9.351563 3.945312 17.308594 10.238281 23.191406 18.152344zm-39.929687-23.28125-64.289063 74.175781-18.015624-66.046875 23.746093-23.746094zm-68.953125-27.839844-24 24-24-24v-16.886719c7.523438 2.671875 15.578125 4.199219 24 4.199219 8.425781 0 16.480469-1.527344 24-4.199219zm-24-28.6875c-30.878906 0-56-25.128906-56-56v-64h112v64c0 30.871094-25.117188 56-56 56zm88-88c0 8.824218-7.175781 16-16 16v-32c8.824219 0 16 7.175781 16 16zm-56-104h-64c-15.503906 0-28.820312 8.960937-35.460938 21.886718l-70.175781-29.238281 137.636719-48.167969 137.640625 48.167969-70.175781 29.238281c-6.640625-12.925781-19.957032-21.886718-35.464844-21.886718zm120 96h-16v-24c0-4.417969 3.59375-8 8-8 4.410156 0 8 3.582031 8 8zm0 0"/><path d="m168.5 231.996094c-13.230469 0-24-10.769532-24-24h-16c0 22.054687 17.945312 40 40 40 22.058594 0 40-17.945313 40-40h-16c0 13.230468-10.765625 24-24 24zm0 0"/></svg>