<?xml version="1.0" encoding="iso-8859-1"?>
<!-- Generator: Adobe Illustrator 19.0.0, SVG Export Plug-In . SVG Version: 6.00 Build 0)  -->
<svg version="1.1" id="Layer_1" xmlns="http://www.w3.org/2000/svg" xmlns:xlink="http://www.w3.org/1999/xlink" x="0px" y="0px"
	 viewBox="0 0 512 512" style="enable-background:new 0 0 512 512;" xml:space="preserve">
<circle cx="256" cy="256" r="256"/>
<g>
	<path style="fill:#FFFFFF;" d="M99.24,302.24V199.16h45.704c9.184,0,16.168,0.928,20.952,2.784s8.6,5.12,11.464,9.808
		s4.288,9.864,4.288,15.536c0,7.312-2.368,13.48-7.104,18.496s-12.048,8.2-21.936,9.56c3.608,1.736,6.352,3.448,8.224,5.136
		c3.984,3.656,7.76,8.224,11.32,13.712l17.928,28.056h-17.16L159.288,280.8c-3.984-6.184-7.264-10.92-9.84-14.2
		s-4.88-5.576-6.928-6.888c-2.032-1.312-4.112-2.224-6.216-2.744c-1.544-0.328-4.08-0.496-7.592-0.496H112.88v45.776H99.24V302.24z
		 M112.88,244.656h29.32c6.232,0,11.112-0.64,14.624-1.928s6.184-3.352,8.016-6.184s2.744-5.92,2.744-9.248
		c0-4.872-1.776-8.88-5.304-12.024c-3.544-3.144-9.136-4.712-16.776-4.712H112.88V244.656z"/>
	<path style="fill:#FFFFFF;" d="M250.336,302.24v-10.968c-5.816,8.44-13.712,12.656-23.696,12.656c-4.408,0-8.52-0.84-12.344-2.528
		s-6.656-3.808-8.496-6.36c-1.856-2.552-3.16-5.688-3.904-9.392c-0.512-2.488-0.776-6.424-0.776-11.816v-46.264h12.656v41.416
		c0,6.608,0.256,11.064,0.776,13.36c0.8,3.328,2.488,5.944,5.064,7.832c2.576,1.904,5.768,2.848,9.56,2.848s7.36-0.968,10.688-2.912
		s5.68-4.592,7.064-7.952c1.384-3.344,2.08-8.208,2.08-14.584v-40.008h12.656v74.672H250.336z"/>
	<path style="fill:#FFFFFF;" d="M293.16,302.24h-11.744V199.16h12.656v36.776c5.344-6.704,12.168-10.056,20.464-10.056
		c4.592,0,8.936,0.928,13.04,2.784s7.48,4.456,10.128,7.8c2.648,3.36,4.728,7.4,6.224,12.136s2.248,9.8,2.248,15.184
		c0,12.8-3.168,22.688-9.496,29.672s-13.92,10.48-22.784,10.48c-8.816,0-15.728-3.68-20.744-11.04v9.344H293.16z M293.016,264.344
		c0,8.952,1.216,15.424,3.656,19.408c3.984,6.512,9.376,9.776,16.168,9.776c5.528,0,10.312-2.4,14.344-7.2
		s6.048-11.968,6.048-21.488c0-9.752-1.928-16.944-5.808-21.584c-3.856-4.64-8.536-6.96-14.024-6.96
		c-5.528,0-10.312,2.408-14.344,7.2C295.032,248.304,293.016,255.248,293.016,264.344z"/>
	<path style="fill:#FFFFFF;" d="M361.008,331l-1.408-11.88c2.768,0.752,5.176,1.128,7.24,1.128c2.816,0,5.064-0.472,6.752-1.408
		s3.072-2.248,4.152-3.936c0.8-1.264,2.088-4.408,3.864-9.424c0.232-0.704,0.608-1.736,1.128-3.096L354.4,227.568h13.64
		l15.536,43.24c2.016,5.488,3.824,11.248,5.416,17.296c1.456-5.816,3.184-11.488,5.2-17.016l15.96-43.52h12.656L394.4,303.504
		c-3.048,8.2-5.416,13.848-7.104,16.944c-2.248,4.168-4.832,7.224-7.736,9.176c-2.904,1.936-6.376,2.912-10.408,2.912
		C366.728,332.544,364.008,332.032,361.008,331z"/>
</g>
<g>
</g>
<g>
</g>
<g>
</g>
<g>
</g>
<g>
</g>
<g>
</g>
<g>
</g>
<g>
</g>
<g>
</g>
<g>
</g>
<g>
</g>
<g>
</g>
<g>
</g>
<g>
</g>
<g>
</g>
</svg>
