<?xml version="1.0" encoding="iso-8859-1"?>
<!-- Generator: Adobe Illustrator 16.0.0, SVG Export Plug-In . SVG Version: 6.00 Build 0)  -->
<!DOCTYPE svg PUBLIC "-//W3C//DTD SVG 1.1//EN" "http://www.w3.org/Graphics/SVG/1.1/DTD/svg11.dtd">
<svg version="1.1" id="Capa_1" xmlns="http://www.w3.org/2000/svg" xmlns:xlink="http://www.w3.org/1999/xlink" x="0px" y="0px"
	 width="612.043px" height="612.043px" viewBox="0 0 612.043 612.043" style="enable-background:new 0 0 612.043 612.043;"
	 xml:space="preserve">
<g>
	<g>
		<g>
			<g>
				<g>
					<path d="M159.767,379.684c-1.504,0.676-5.514,1.221-8.914,1.221h-4.097c-3.4,0-7.41-0.545-8.914-1.221
						c-1.503-0.676-2.724-7.018-2.724-10.418v-46.92c0-3.4-2.79-6.168-6.189-6.168H78.042c-3.4,0-6.167,2.789-6.167,6.168v46.92
						c0,3.4-0.545,7.41-1.22,8.914c-0.676,1.504-6.996,2.725-10.396,2.725h-4.119c-3.399,0-7.41-0.545-8.892-1.221
						s-2.746-7.018-2.746-10.418v-126.51c0-3.4,0.545-7.41,1.221-8.892c0.675-1.482,6.996-2.724,10.396-2.724h4.119
						c3.4,0,7.41,0.545,8.892,1.22c1.482,0.676,2.724,7.018,2.724,10.417v41.037c0,3.4,2.79,6.167,6.167,6.167h50.888
						c3.4,0,6.189-2.79,6.189-6.167v-41.037c0-3.4,0.544-7.41,1.22-8.892s6.996-2.724,10.396-2.724h4.119
						c3.4,0,7.41,0.544,8.914,1.22c1.504,0.676,2.724,7.018,2.724,10.417v126.511C162.491,372.666,161.271,379.008,159.767,379.684z
						 M146.015,363.818c0,3.398,1.264,6.189,2.79,6.189c1.525,0,2.79-2.791,2.79-6.189V248.204c0-3.399-1.264-6.167-2.79-6.167
						c-1.526,0-2.79,2.79-2.79,6.167v41.037c0,3.4-0.545,7.41-1.221,8.892c-0.675,1.482-6.996,2.724-10.396,2.724H72.593
						c-3.4,0-7.41-0.545-8.892-1.22c-1.482-0.676-2.724-7.018-2.724-10.417v-41.037c0-3.4-1.264-6.167-2.79-6.167
						c-1.526,0-2.79,2.79-2.79,6.167v115.614c0,3.398,1.264,6.189,2.79,6.189c1.525,0,2.79-2.791,2.79-6.189v-46.922
						c0-3.4,0.545-7.41,1.22-8.893c0.676-1.48,6.996-2.723,10.396-2.723h61.784c3.399,0,7.41,0.545,8.914,1.22
						c1.503,0.675,2.724,7.019,2.724,10.417V363.818z"/>
				</g>
				<g>
					<path d="M241.579,379.684c-1.504,0.676-5.514,1.221-8.892,1.221h-4.119c-3.399,0-7.41-0.545-8.892-1.221
						s-2.746-7.018-2.746-10.418V263.503c0-3.4-2.79-6.168-6.167-6.168h-28.113c-3.4,0-7.41-0.544-8.892-1.22
						c-1.504-0.675-2.724-7.018-2.724-10.417v-2.942c0-3.4,0.545-7.41,1.22-8.892c0.676-1.482,6.996-2.724,10.396-2.724h95.934
						c3.4,0,7.41,0.545,8.892,1.22c1.482,0.676,2.724,7.018,2.724,10.417v2.942c0,3.4-0.545,7.41-1.221,8.892
						c-0.675,1.482-6.996,2.724-10.396,2.724h-28.07c-3.399,0-6.167,2.79-6.167,6.168v105.762
						C244.303,372.666,243.083,379.008,241.579,379.684z M227.827,363.818c0,3.398,1.264,6.189,2.79,6.189
						c1.525,0,2.79-2.791,2.79-6.189V258.055c0-3.399,0.545-7.41,1.22-8.892c0.676-1.482,6.996-2.724,10.396-2.724h28.07
						c3.4,0,6.167-0.98,6.167-2.201c0-1.22-2.79-2.201-6.167-2.201h-85.016c-3.4,0-6.167,0.981-6.167,2.201
						c0,1.221,2.79,2.201,6.167,2.201h28.113c3.4,0,7.41,0.545,8.892,1.221c1.482,0.675,2.724,7.017,2.724,10.417v105.742H227.827z"
						/>
				</g>
				<g>
					<path d="M450.271,379.684c-1.504,0.676-5.514,1.221-8.913,1.221h-4.119c-3.4,0-7.41-0.545-8.914-1.221
						c-1.503-0.676-2.724-7.018-2.724-10.418v-78.521c0-3.399-1.09-3.618-2.419-0.501l-34.913,81.659
						c-1.329,3.117-3.073,6.43-3.836,7.346c-0.763,0.914-5.84,1.656-8.586,1.656s-5.928-0.283-7.083-0.654s-4.01-5.209-5.361-8.348
						l-34.913-81.659c-1.329-3.116-2.419-2.898-2.419,0.501v78.521c0,3.4-0.545,7.41-1.221,8.914
						c-0.675,1.504-6.995,2.725-10.396,2.725h-4.118c-3.399,0-7.41-0.545-8.892-1.221s-2.724-7.018-2.724-10.418v-126.51
						c0-3.4,0.545-7.41,1.22-8.892c0.676-1.482,6.997-2.724,10.396-2.724h12.16c3.399,0,7.104,0.283,8.238,0.654
						c1.133,0.371,4.031,5.187,5.383,8.325l37.375,86.432c1.352,3.117,3.574,3.117,4.926,0l37.725-86.476
						c1.351-3.116,3.116-6.407,3.879-7.301s6.363-1.634,9.764-1.634h11.572c3.399,0,7.409,0.545,8.913,1.22
						c1.504,0.676,2.724,7.018,2.724,10.417v126.509C452.996,372.666,451.775,379.008,450.271,379.684z M436.52,363.818
						c0,3.398,1.265,6.189,2.79,6.189s2.789-2.791,2.789-6.189V248.204c0-3.399-2.789-6.167-6.188-6.167h-2.551
						c-3.399,0-7.301,2.55-8.651,5.667l-41.124,94.277c-1.352,3.117-4.424,6.561-6.8,7.65c-2.375,1.09-7.17-4.555-8.521-7.672
						l-40.754-94.234c-1.352-3.117-5.23-5.667-8.63-5.667h-3.139c-3.399,0-6.167,2.79-6.167,6.167V363.84
						c0,3.4,1.264,6.189,2.789,6.189s2.79-2.789,2.79-6.189v-98.702c0-3.4,1.111-8.63,2.44-11.616c0,0,0,0,3.008,0
						c2.179,0,2.179,0,2.179,0c1.787,1.831,4.359,5.862,5.688,9l43.543,101.841c1.329,3.115,3.051,5.688,3.836,5.688
						c0.784,0,2.506-2.551,3.835-5.688l43.543-101.841c1.33-3.116,4.882-6.364,7.868-7.213c2.985-0.85,5.448,6.451,5.448,9.851
						v98.659H436.52z"/>
				</g>
				<g>
					<path d="M564.817,379.684c-1.504,0.676-5.514,1.221-8.914,1.221h-67.668c-3.399,0-7.409-0.545-8.913-1.221
						s-2.725-7.018-2.725-10.418v-126.51c0-3.4,0.545-7.41,1.221-8.892s6.995-2.724,10.396-2.724h4.119
						c3.399,0,7.409,0.545,8.913,1.22c1.504,0.676,2.724,7.018,2.724,10.417v105.763c0,3.4,2.79,6.168,6.189,6.168h45.744
						c3.4,0,7.41,0.545,8.914,1.219c1.504,0.676,2.724,7.018,2.724,10.418v2.941C567.541,372.666,566.321,379.008,564.817,379.684z
						 M487.517,363.818c0,3.398,2.789,6.189,6.188,6.189h56.772c3.399,0,6.188-0.98,6.188-2.201s-2.789-2.201-6.188-2.201h-45.744
						c-3.4,0-7.41-0.545-8.914-1.221s-2.724-7.018-2.724-10.418V248.204c0-3.399-1.265-6.167-2.79-6.167s-2.789,2.79-2.789,6.167
						V363.818z"/>
				</g>
			</g>
		</g>
		<path d="M306.021,612.043c-168.724,0-306-137.275-306-306.021C0.021,137.276,137.298,0,306.021,0s306,137.276,306,306.021
			C612.021,474.768,474.745,612.043,306.021,612.043z M306.021,21.793c-156.694,0-284.207,127.513-284.207,284.228
			c0,156.717,127.513,284.229,284.207,284.229c156.694,0,284.207-127.512,284.207-284.229
			C590.229,149.306,462.716,21.793,306.021,21.793z"/>
	</g>
</g>
<g>
</g>
<g>
</g>
<g>
</g>
<g>
</g>
<g>
</g>
<g>
</g>
<g>
</g>
<g>
</g>
<g>
</g>
<g>
</g>
<g>
</g>
<g>
</g>
<g>
</g>
<g>
</g>
<g>
</g>
</svg>
